<svg xmlns="http://www.w3.org/2000/svg" xmlns:xlink="http://www.w3.org/1999/xlink" width="500" zoomAndPan="magnify" viewBox="0 0 375 374.999991" height="500" preserveAspectRatio="xMidYMid meet" version="1.0"><defs><g/><clipPath id="3c4cea5511"><path d="M 0 25.226562 L 375 25.226562 L 375 349.976562 L 0 349.976562 Z M 0 25.226562 " clip-rule="nonzero"/></clipPath><clipPath id="e1b344b3ec"><path d="M 31 52.007812 L 343.691406 52.007812 L 343.691406 322.757812 L 31 322.757812 Z M 31 52.007812 " clip-rule="nonzero"/></clipPath></defs><g clip-path="url(#3c4cea5511)"><path fill="#ffffff" d="M 274.667969 36.476562 L 361.835938 187.601562 L 274.667969 338.726562 L 100.332031 338.726562 L 13.089844 187.601562 L 100.332031 36.476562 L 274.667969 36.476562 M 281.1875 25.226562 L 93.8125 25.226562 L 0.121094 187.601562 L 93.8125 349.976562 L 281.1875 349.976562 L 374.878906 187.601562 Z M 281.1875 25.226562 " fill-opacity="1" fill-rule="nonzero"/></g><g clip-path="url(#e1b344b3ec)"><path fill="#5e17eb" d="M 260.015625 61.386719 L 332.714844 187.382812 L 260.015625 313.375 L 114.617188 313.375 L 41.855469 187.382812 L 114.617188 61.386719 L 260.015625 61.386719 M 265.453125 52.007812 L 109.179688 52.007812 L 31.042969 187.382812 L 109.179688 322.757812 L 265.453125 322.757812 L 343.59375 187.382812 Z M 265.453125 52.007812 " fill-opacity="1" fill-rule="nonzero"/></g><g fill="#ffffff" fill-opacity="1"><g transform="translate(130.839841, 248.437484)"><g><path d="M 72.890625 -100 L 72.890625 -17.9375 L 99.140625 -17.9375 L 99.140625 0 L 18.3125 0 L 18.3125 -17.9375 L 47.40625 -17.9375 L 47.40625 -82.046875 L 19.265625 -82.046875 L 19.265625 -100 Z M 56.5625 -150.703125 C 61.21875 -150.703125 64.992188 -149.253906 67.890625 -146.359375 C 70.785156 -143.460938 72.234375 -139.90625 72.234375 -135.6875 C 72.234375 -131.34375 70.785156 -127.722656 67.890625 -124.828125 C 64.992188 -121.929688 61.21875 -120.484375 56.5625 -120.484375 C 51.90625 -120.484375 48.113281 -121.929688 45.1875 -124.828125 C 42.257812 -127.722656 40.796875 -131.34375 40.796875 -135.6875 C 40.796875 -139.90625 42.257812 -143.460938 45.1875 -146.359375 C 48.113281 -149.253906 51.90625 -150.703125 56.5625 -150.703125 Z M 56.5625 -150.703125 "/></g></g></g></svg>