<svg width="27" height="31" viewBox="0 0 27 31" fill="none" xmlns="http://www.w3.org/2000/svg">
<g clip-path="url(#clip0_214_889)">
<path d="M9.97988 2.95996H3.87988V8.70996H9.97988V2.95996Z" fill="white"/>
<path d="M2.78 2.95996H0V5.73996H2.78V2.95996Z" fill="white"/>
<path d="M5.53988 0H3.87988V1.66H5.53988V0Z" fill="white"/>
<path d="M9.97988 24.7297V21.6197V14.9297H3.87988V30.4597H9.97988V24.7297Z" fill="white"/>
<path d="M22.6099 6.57988C20.4599 4.68988 17.8599 3.53988 14.8699 3.12988V8.97988C16.2399 9.27988 17.3999 9.84988 18.3699 10.6799C19.8399 11.9399 20.5599 13.8399 20.5599 16.4899C20.5599 19.1399 19.8499 21.1699 18.3799 22.5999C17.4499 23.5099 16.2899 24.1199 14.8799 24.4499V30.2799C17.9299 29.8299 20.5299 28.6099 22.6499 26.6399C25.4199 24.0699 26.8199 20.6299 26.8199 16.4099C26.8199 12.1899 25.4099 9.02988 22.6199 6.58988L22.6099 6.57988Z" fill="white"/>
</g>
<defs>
<clipPath id="clip0_214_889">
<rect width="26.81" height="30.46" fill="white"/>
</clipPath>
</defs>
</svg>
