<svg width="225" height="256" viewBox="0 0 225 256" fill="none" xmlns="http://www.w3.org/2000/svg">
<g id="Logo" clip-path="url(#clip0_215_290)" filter="url(#filter0_i_215_290)">
<g id="Group">
<path id="Vector" d="M83.7561 24.8772H32.5625V73.2029H83.7561V24.8772Z" fill="white"/>
<path id="Vector_2" d="M23.3308 24.8772H0V48.2416H23.3308V24.8772Z" fill="white"/>
<path id="Vector_3" d="M46.4939 0H32.5625V13.9514H46.4939V0Z" fill="white"/>
</g>
<g id="Group_2">
<path id="Vector_4" d="M83.7561 207.842V181.705V125.479H32.5625V256H83.7561V207.842Z" fill="white"/>
<path id="Vector_5" d="M189.752 55.3014C171.708 39.4169 149.888 29.7518 124.795 26.306V75.4721C136.292 77.9934 146.028 82.784 154.168 89.7597C166.505 100.349 172.548 116.318 172.548 138.59C172.548 160.861 166.589 177.923 154.252 189.941C146.447 197.589 136.712 202.716 124.879 205.489V254.487C150.476 250.705 172.296 240.452 190.088 223.895C213.335 202.295 225.084 173.384 225.084 137.917C225.084 102.45 213.251 75.8923 189.836 55.3854L189.752 55.3014Z" fill="white"/>
</g>
</g>
<defs>
<filter id="filter0_i_215_290" x="0" y="0" width="225" height="260" filterUnits="userSpaceOnUse" color-interpolation-filters="sRGB">
<feFlood flood-opacity="0" result="BackgroundImageFix"/>
<feBlend mode="normal" in="SourceGraphic" in2="BackgroundImageFix" result="shape"/>
<feColorMatrix in="SourceAlpha" type="matrix" values="0 0 0 0 0 0 0 0 0 0 0 0 0 0 0 0 0 0 127 0" result="hardAlpha"/>
<feOffset dy="4"/>
<feGaussianBlur stdDeviation="2"/>
<feComposite in2="hardAlpha" operator="arithmetic" k2="-1" k3="1"/>
<feColorMatrix type="matrix" values="0 0 0 0 0 0 0 0 0 0 0 0 0 0 0 0 0 0 0.25 0"/>
<feBlend mode="normal" in2="shape" result="effect1_innerShadow_215_290"/>
</filter>
<clipPath id="clip0_215_290">
<rect width="225" height="256" fill="white"/>
</clipPath>
</defs>
</svg>
