<svg width="525" height="426" viewBox="0 0 525 426" fill="none" xmlns="http://www.w3.org/2000/svg">
<path d="M30.9525 395H20.0775C19.765 395 19.6087 394.844 19.6087 394.531L19.7025 328.578C19.7025 328.328 19.8275 328.203 20.0775 328.203H30.8587C31.1087 328.203 31.2337 328.328 31.2337 328.578L31.3275 394.531C31.3275 394.844 31.2025 395 30.9525 395ZM55.9969 395.938C52.5281 395.938 49.3562 395.062 46.4812 393.312C43.6375 391.562 41.3719 389.219 39.6844 386.281C38.0281 383.312 37.2 380.016 37.2 376.391L37.2937 346.438C37.2937 342.875 38.1062 339.656 39.7312 336.781C41.3562 333.875 43.5906 331.547 46.4344 329.797C49.3094 328.016 52.4969 327.125 55.9969 327.125C59.5594 327.125 62.7312 327.984 65.5125 329.703C68.325 331.422 70.5594 333.75 72.2156 336.688C73.9031 339.594 74.7469 342.844 74.7469 346.438V350.844C74.7469 351.094 74.6219 351.219 74.3719 351.219H63.5906C63.3406 351.219 63.2156 351.094 63.2156 350.844V346.438C63.2156 344.312 62.5281 342.484 61.1531 340.953C59.7781 339.422 58.0594 338.656 55.9969 338.656C53.7156 338.656 51.9656 339.438 50.7469 341C49.5281 342.562 48.9187 344.375 48.9187 346.438V376.391C48.9187 378.734 49.6062 380.656 50.9812 382.156C52.3562 383.625 54.0281 384.359 55.9969 384.359C58.0594 384.359 59.7781 383.547 61.1531 381.922C62.5281 380.266 63.2156 378.422 63.2156 376.391V371.938C63.2156 371.688 63.3406 371.562 63.5906 371.562H74.4656C74.7156 371.562 74.8406 371.688 74.8406 371.938V376.391C74.8406 379.984 73.9969 383.266 72.3094 386.234C70.5906 389.172 68.325 391.531 65.5125 393.312C62.7 395.062 59.5281 395.938 55.9969 395.938ZM77.1506 394.531L89.0569 328.578C89.1194 328.328 89.2756 328.203 89.5256 328.203H103.447C103.697 328.203 103.854 328.328 103.916 328.578L115.354 394.531C115.385 394.844 115.26 395 114.979 395H104.338C104.026 395 103.854 394.844 103.822 394.531L102.791 387.5H89.7131L88.6819 394.531C88.6506 394.844 88.4944 395 88.2131 395H77.5256C77.2756 395 77.1506 394.844 77.1506 394.531ZM96.9319 350.281L96.3694 346.719L95.9475 350.281L91.635 377.234H100.869L96.9319 350.281ZM131.164 395H120.289C120.039 395 119.914 394.844 119.914 394.531L120.101 328.578C120.101 328.328 120.226 328.203 120.476 328.203H139.882C143.351 328.203 146.539 329.047 149.445 330.734C152.351 332.422 154.664 334.688 156.382 337.531C158.132 340.375 159.007 343.594 159.007 347.188C159.007 349.531 158.648 351.656 157.929 353.562C157.211 355.469 156.367 357.078 155.398 358.391C154.461 359.703 153.601 360.672 152.82 361.297C156.289 365.141 158.023 369.656 158.023 374.844L158.117 394.531C158.117 394.844 157.961 395 157.648 395H146.773C146.523 395 146.398 394.906 146.398 394.719V374.844C146.398 372.531 145.586 370.531 143.961 368.844C142.336 367.156 140.336 366.312 137.961 366.312H131.632L131.539 394.531C131.539 394.844 131.414 395 131.164 395ZM139.882 339.688H131.632V354.781H139.882C141.851 354.781 143.601 354.047 145.132 352.578C146.695 351.109 147.476 349.312 147.476 347.188C147.476 345.156 146.726 343.406 145.226 341.938C143.726 340.438 141.945 339.688 139.882 339.688ZM180.583 395.938C177.177 395.938 174.036 395.062 171.161 393.312C168.318 391.562 166.021 389.234 164.271 386.328C162.552 383.391 161.693 380.172 161.693 376.672L161.786 346.25C161.786 342.688 162.646 339.484 164.364 336.641C166.052 333.766 168.333 331.469 171.208 329.75C174.083 328 177.208 327.125 180.583 327.125C184.083 327.125 187.224 327.984 190.005 329.703C192.818 331.422 195.068 333.734 196.755 336.641C198.474 339.516 199.333 342.719 199.333 346.25L199.427 376.672C199.427 380.172 198.583 383.375 196.896 386.281C195.177 389.219 192.896 391.562 190.052 393.312C187.208 395.062 184.052 395.938 180.583 395.938ZM180.583 384.359C182.521 384.359 184.208 383.578 185.646 382.016C187.083 380.422 187.802 378.641 187.802 376.672L187.708 346.25C187.708 344.125 187.036 342.328 185.693 340.859C184.349 339.391 182.646 338.656 180.583 338.656C178.614 338.656 176.927 339.375 175.521 340.812C174.114 342.25 173.411 344.062 173.411 346.25V376.672C173.411 378.766 174.114 380.578 175.521 382.109C176.927 383.609 178.614 384.359 180.583 384.359ZM246.422 394.906L229.219 395C228.906 395 228.75 394.844 228.75 394.531L228.938 328.578C228.938 328.328 229.062 328.203 229.312 328.203L247.266 328.109C250.828 328.016 254.047 328.828 256.922 330.547C259.828 332.266 262.141 334.594 263.859 337.531C265.609 340.438 266.484 343.656 266.484 347.188V374.75C266.484 378.438 265.594 381.812 263.812 384.875C262 387.906 259.594 390.328 256.594 392.141C253.594 393.922 250.203 394.844 246.422 394.906ZM247.266 339.594L240.562 339.688L240.469 383.188H246.422C248.797 383.188 250.797 382.359 252.422 380.703C254.047 379.047 254.859 377.062 254.859 374.75V347.094C254.859 345.062 254.109 343.297 252.609 341.797C251.109 340.266 249.328 339.531 247.266 339.594ZM290.357 395.938C286.951 395.938 283.81 395.062 280.935 393.312C278.091 391.562 275.794 389.234 274.044 386.328C272.326 383.391 271.466 380.172 271.466 376.672L271.56 346.25C271.56 342.688 272.419 339.484 274.138 336.641C275.826 333.766 278.107 331.469 280.982 329.75C283.857 328 286.982 327.125 290.357 327.125C293.857 327.125 296.997 327.984 299.779 329.703C302.591 331.422 304.841 333.734 306.529 336.641C308.247 339.516 309.107 342.719 309.107 346.25L309.201 376.672C309.201 380.172 308.357 383.375 306.669 386.281C304.951 389.219 302.669 391.562 299.826 393.312C296.982 395.062 293.826 395.938 290.357 395.938ZM290.357 384.359C292.294 384.359 293.982 383.578 295.419 382.016C296.857 380.422 297.576 378.641 297.576 376.672L297.482 346.25C297.482 344.125 296.81 342.328 295.466 340.859C294.122 339.391 292.419 338.656 290.357 338.656C288.388 338.656 286.701 339.375 285.294 340.812C283.888 342.25 283.185 344.062 283.185 346.25V376.672C283.185 378.766 283.888 380.578 285.294 382.109C286.701 383.609 288.388 384.359 290.357 384.359ZM346.432 395H315.401C315.151 395 315.026 394.844 315.026 394.531L315.12 328.672C315.12 328.359 315.276 328.203 315.589 328.203H326.276C326.589 328.203 326.745 328.359 326.745 328.672L326.651 383.188H346.432C346.745 383.188 346.901 383.344 346.901 383.656V394.531C346.901 394.844 346.745 395 346.432 395ZM384.977 395H349.164C348.852 395 348.696 394.844 348.696 394.531L348.789 384.078L372.321 339.125H350.055C349.774 339.125 349.633 339 349.633 338.75V328.672C349.633 328.359 349.774 328.203 350.055 328.203H384.789C385.102 328.203 385.258 328.359 385.258 328.672V339.031L361.867 383.75H384.977C385.227 383.75 385.352 383.922 385.352 384.266L385.446 394.531C385.446 394.844 385.289 395 384.977 395ZM386.818 394.531L398.724 328.578C398.787 328.328 398.943 328.203 399.193 328.203H413.115C413.365 328.203 413.521 328.328 413.584 328.578L425.021 394.531C425.052 394.844 424.927 395 424.646 395H414.006C413.693 395 413.521 394.844 413.49 394.531L412.459 387.5H399.381L398.349 394.531C398.318 394.844 398.162 395 397.881 395H387.193C386.943 395 386.818 394.844 386.818 394.531ZM406.599 350.281L406.037 346.719L405.615 350.281L401.302 377.234H410.537L406.599 350.281ZM440.034 395H430.425C429.925 395 429.675 394.781 429.675 394.344L429.581 328.953C429.581 328.453 429.831 328.203 430.331 328.203H439.003L455.222 366.031L454.753 328.953C454.753 328.453 455.034 328.203 455.597 328.203H465.112C465.487 328.203 465.675 328.453 465.675 328.953L465.769 394.438C465.769 394.812 465.612 395 465.3 395H456.862L440.222 359.656L440.925 394.25C440.925 394.75 440.628 395 440.034 395ZM504.079 395H473.047C472.797 395 472.672 394.844 472.672 394.531L472.766 328.578C472.766 328.328 472.891 328.203 473.141 328.203H503.985C504.235 328.203 504.36 328.359 504.36 328.672V339.406C504.36 339.656 504.235 339.781 503.985 339.781H484.297V354.781H503.985C504.235 354.781 504.36 354.906 504.36 355.156L504.454 366.031C504.454 366.281 504.329 366.406 504.079 366.406H484.297V383.188H504.079C504.329 383.188 504.454 383.344 504.454 383.656V394.625C504.454 394.875 504.329 395 504.079 395Z" fill="white"/>
<path d="M233.756 207.843V181.705V125.479H182.562V256H233.756V207.843Z" fill="white"/>
<path d="M339.752 55.3016C321.708 39.4171 299.888 29.752 274.795 26.3062V75.4723C286.292 77.9936 296.028 82.7842 304.168 89.7599C316.505 100.349 322.548 116.318 322.548 138.59C322.548 160.862 316.589 177.923 304.252 189.941C296.447 197.589 286.712 202.716 274.879 205.489V254.487C300.476 250.705 322.296 240.452 340.088 223.895C363.335 202.296 375.084 173.384 375.084 137.917C375.084 102.451 363.251 75.8925 339.836 55.3856L339.752 55.3016Z" fill="white"/>
<path d="M233.756 24.8772H182.562V73.2029H233.756V24.8772Z" fill="white"/>
<path d="M173.331 24.8772H150V48.2416H173.331V24.8772Z" fill="white"/>
<path d="M196.494 0H182.562V13.9514H196.494V0Z" fill="white"/>
</svg>
