<svg width="56" height="58" viewBox="0 0 56 58" fill="none" xmlns="http://www.w3.org/2000/svg">
<g filter="url(#filter0_d_369_28)">
<path d="M51.6363 8.21229C43.8851 5.51956 36.1348 2.82598 28.3837 0.133245L27.9999 0C20.1214 2.73743 12.242 5.47486 4.36353 8.21229C5.5654 18.2656 6.76728 28.3188 7.97003 38.3721C14.6467 41.9647 21.3233 45.5572 27.9999 49.1489L28.3121 48.9811C34.885 45.4451 41.4578 41.9082 48.0297 38.3721C49.2316 28.3188 50.4335 18.2656 51.6363 8.21229Z" fill="#CC2B38"/>
</g>
<path d="M51.6364 8.21229C43.8852 5.51956 36.1349 2.82598 28.3838 0.133245L28 0V49.1489L28.3122 48.9811C34.8851 45.4451 41.4579 41.9082 48.0299 38.3721C49.2317 28.3188 50.4336 18.2656 51.6364 8.21229Z" fill="#B42534"/>
<path d="M27.9999 5.85107C23.2729 16.3827 18.5451 26.9152 13.8181 37.4468H19.172C20.1487 35.1035 21.1255 32.7602 22.1023 30.4169H33.8976C34.8743 32.7602 35.8511 35.1035 36.8279 37.4468H42.1818C37.4548 26.9152 32.7269 16.3827 27.9999 5.85107ZM23.8293 26.019V25.9526C25.2198 22.6941 26.6094 19.4363 27.9999 16.1778C29.3904 19.4579 30.7801 22.7389 32.1706 26.019H23.8293Z" fill="white"/>
<defs>
<filter id="filter0_d_369_28" x="0.363525" y="0" width="55.2727" height="57.1489" filterUnits="userSpaceOnUse" color-interpolation-filters="sRGB">
<feFlood flood-opacity="0" result="BackgroundImageFix"/>
<feColorMatrix in="SourceAlpha" type="matrix" values="0 0 0 0 0 0 0 0 0 0 0 0 0 0 0 0 0 0 127 0" result="hardAlpha"/>
<feOffset dy="4"/>
<feGaussianBlur stdDeviation="2"/>
<feComposite in2="hardAlpha" operator="out"/>
<feColorMatrix type="matrix" values="0 0 0 0 0 0 0 0 0 0 0 0 0 0 0 0 0 0 0.25 0"/>
<feBlend mode="normal" in2="BackgroundImageFix" result="effect1_dropShadow_369_28"/>
<feBlend mode="normal" in="SourceGraphic" in2="effect1_dropShadow_369_28" result="shape"/>
</filter>
</defs>
</svg>
