<svg width="77" height="77" viewBox="0 0 77 77" fill="none" xmlns="http://www.w3.org/2000/svg">
<g filter="url(#filter0_d_214_822)">
<path d="M38.5 69C57.5538 69 73 53.5538 73 34.5C73 15.4462 57.5538 0 38.5 0C19.4462 0 4 15.4462 4 34.5C4 53.5538 19.4462 69 38.5 69Z" fill="url(#paint0_linear_214_822)"/>
</g>
<path d="M25.2201 26.2339H25.0435V41.7796H25.2201H26.0371H35.4832V40.786H26.0371V34.2724H34.8208V33.2788H26.0371V27.2275H35.4832V26.2339H26.0371H25.2201Z" fill="black"/>
<path d="M60.9786 26.2339H55.5H54.5064H49.0278V27.2275H54.5064V41.7796H55.5V27.2275H60.9786V26.2339Z" fill="black"/>
<path d="M54.5587 17.043C50.5126 22.3987 46.4678 27.7545 42.4216 33.1103L37.426 26.2338H36.1978L41.7965 33.9383C39.8217 36.552 37.8483 39.1657 35.8735 41.7795H37.3046C38.9689 39.3948 40.6318 37.0102 42.2961 34.6242L47.4945 41.7795H48.7227L42.8977 33.7617L54.5601 17.043H54.5587Z" fill="black"/>
<path d="M12.1543 26.2339V41.7796H13.1479V28.2349C24.5246 44.1546 30.2916 52.0633 30.4462 51.9543C30.6049 51.8425 24.8393 43.27 13.1479 26.2339H12.1543Z" fill="black"/>
<path d="M60.6846 40.1182C60.5838 40.1182 60.4996 40.1527 60.4306 40.223C60.3616 40.2934 60.3271 40.3776 60.3271 40.4742C60.3271 40.5887 60.363 40.6784 60.4348 40.7419C60.5065 40.8054 60.5921 40.8371 60.6915 40.8371C60.7908 40.8371 60.8709 40.8054 60.9412 40.7405C61.0116 40.6757 61.0475 40.5874 61.0475 40.4742C61.0475 40.3748 61.0116 40.2907 60.9412 40.2217C60.8709 40.1527 60.7839 40.1182 60.6846 40.1182Z" fill="black"/>
<path d="M63.1673 37.6255C63.1673 37.6255 63.1673 37.6352 63.1673 37.6407V39.5823C63.1673 40.0432 63.01 40.2737 62.6954 40.2737C62.5767 40.2737 62.487 40.2475 62.4221 40.195C62.3587 40.1426 62.3131 40.0791 62.2855 40.006C62.2648 39.948 62.2427 39.8763 62.222 39.788H61.5527C61.5583 39.8735 61.5707 39.9618 61.5955 40.0529C61.6273 40.1688 61.6687 40.2723 61.7197 40.362C61.8177 40.529 61.9447 40.6504 62.1034 40.7263C62.2621 40.8009 62.4608 40.8395 62.6981 40.8395C62.9617 40.8395 63.1853 40.7857 63.3688 40.678C63.5524 40.5704 63.6835 40.42 63.7635 40.2268C63.8118 40.1122 63.8422 39.9991 63.856 39.8873C63.8698 39.7755 63.8767 39.6403 63.8767 39.4802V37.642C63.8767 37.642 63.8767 37.6324 63.8767 37.6269H63.1673V37.6255Z" fill="black"/>
<path d="M67.2206 39.2764C67.1571 39.155 67.0702 39.0528 66.957 38.9742C66.8439 38.8941 66.7086 38.8265 66.5472 38.7713C66.3871 38.7161 66.2077 38.6651 66.0104 38.6181C65.8517 38.5781 65.7385 38.5478 65.6709 38.5271C65.6019 38.5064 65.5343 38.4774 65.468 38.4415C65.4018 38.4056 65.348 38.3615 65.3093 38.3104C65.2707 38.2593 65.2514 38.1986 65.2514 38.1282C65.2514 38.0151 65.3079 37.9185 65.4197 37.8371C65.5329 37.757 65.6805 37.7156 65.8641 37.7156C66.0614 37.7156 66.2049 37.7529 66.2946 37.8274C66.3554 37.8785 66.4106 37.9433 66.4602 38.022H67.1585C67.1516 37.9447 67.1295 37.8647 67.0895 37.7832C67.0412 37.6853 66.9653 37.5928 66.8618 37.5045C66.7583 37.4162 66.6272 37.3444 66.4699 37.292C66.3126 37.2381 66.1263 37.2119 65.911 37.2119C65.6419 37.2119 65.4073 37.2519 65.2072 37.3334C65.0071 37.4134 64.8553 37.5293 64.7504 37.6797C64.6455 37.8302 64.5931 38.0013 64.5931 38.1945C64.5931 38.3973 64.6428 38.5671 64.7421 38.7037C64.8415 38.8403 64.9767 38.948 65.1465 39.0266C65.2348 39.068 65.3355 39.1067 65.4473 39.1425H65.457V39.1453C65.5563 39.177 65.6626 39.206 65.7799 39.2336C65.9676 39.2764 66.118 39.3178 66.2312 39.3551C66.3443 39.3937 66.4354 39.4489 66.5058 39.522C66.5762 39.5952 66.612 39.689 66.612 39.8063C66.612 39.9526 66.5458 40.0754 66.4147 40.1734C66.2836 40.2714 66.1125 40.3211 65.9013 40.3211C65.7482 40.3211 65.624 40.2962 65.5301 40.2479C65.4363 40.1996 65.3631 40.1375 65.3107 40.063C65.2679 40.0009 65.2279 39.9236 65.1906 39.8367H64.5269C64.5324 39.9774 64.5807 40.121 64.6745 40.27C64.7739 40.4273 64.9036 40.5529 65.0637 40.6467C65.2886 40.7778 65.5743 40.8427 65.9207 40.8427C66.2091 40.8427 66.4589 40.7944 66.67 40.6992C66.8811 40.604 67.0412 40.4715 67.1502 40.3017C67.2593 40.132 67.3145 39.9416 67.3145 39.729C67.3145 39.5524 67.2827 39.402 67.2192 39.2805L67.2206 39.2764Z" fill="black"/>
<defs>
<filter id="filter0_d_214_822" x="0" y="0" width="77" height="77" filterUnits="userSpaceOnUse" color-interpolation-filters="sRGB">
<feFlood flood-opacity="0" result="BackgroundImageFix"/>
<feColorMatrix in="SourceAlpha" type="matrix" values="0 0 0 0 0 0 0 0 0 0 0 0 0 0 0 0 0 0 127 0" result="hardAlpha"/>
<feOffset dy="4"/>
<feGaussianBlur stdDeviation="2"/>
<feComposite in2="hardAlpha" operator="out"/>
<feColorMatrix type="matrix" values="0 0 0 0 0 0 0 0 0 0 0 0 0 0 0 0 0 0 0.25 0"/>
<feBlend mode="normal" in2="BackgroundImageFix" result="effect1_dropShadow_214_822"/>
<feBlend mode="normal" in="SourceGraphic" in2="effect1_dropShadow_214_822" result="shape"/>
</filter>
<linearGradient id="paint0_linear_214_822" x1="4" y1="34.5" x2="73" y2="34.5" gradientUnits="userSpaceOnUse">
<stop stop-color="#52CAC2"/>
<stop offset="1" stop-color="#97DEDA"/>
</linearGradient>
</defs>
</svg>
