<svg width="85" height="35" viewBox="0 0 85 35" fill="none" xmlns="http://www.w3.org/2000/svg">
<g clip-path="url(#clip0_214_840)">
<g filter="url(#filter0_d_214_840)">
<path d="M26.9346 10.7179L20.8124 14.1659C20.583 14.2949 20.4424 14.5331 20.4424 14.7906V21.6912C20.4424 21.9487 20.583 22.1869 20.8124 22.316L26.9349 25.7668C27.1637 25.8955 27.4461 25.8955 27.6745 25.7668L33.7961 22.316C34.0242 22.1869 34.1651 21.9487 34.1651 21.6912V14.7906C34.1651 14.5331 34.0242 14.2949 33.7945 14.1659L27.6739 10.7179C27.5592 10.6537 27.4311 10.6216 27.3033 10.6216C27.1755 10.6216 27.0477 10.6537 26.9327 10.7179" fill="url(#paint0_linear_214_840)"/>
</g>
<g filter="url(#filter1_ddd_214_840)">
<path d="M76.3179 23.5162C76.1738 23.5162 76.0309 23.4794 75.9047 23.4083L74.5894 22.6486C74.3929 22.5413 74.4887 22.5036 74.5536 22.4815C74.8156 22.392 74.8686 22.3717 75.1482 22.2168C75.1776 22.2006 75.2159 22.2062 75.2463 22.2237L76.2568 22.8088C76.2933 22.8281 76.345 22.8281 76.3789 22.8088L80.3189 20.5898C80.3553 20.5695 80.379 20.528 80.379 20.486V16.0497C80.379 16.0055 80.3553 15.9659 80.318 15.9437L76.3795 13.7266C76.3431 13.7054 76.2949 13.7054 76.2581 13.7266L72.3206 15.9437C72.2826 15.9649 72.2583 16.0064 72.2583 16.0485V20.4847C72.2583 20.5271 72.282 20.5673 72.3193 20.5876L73.3983 21.1958C73.9842 21.4817 74.3421 21.1447 74.3421 20.8061V16.4276C74.3421 16.3649 74.3922 16.3169 74.4565 16.3169H74.9555C75.0175 16.3169 75.0689 16.3649 75.0689 16.4276V20.808C75.0689 21.5702 74.643 22.0079 73.9021 22.0079C73.6743 22.0079 73.4948 22.0079 72.9938 21.7673L71.9602 21.1862C71.7049 21.0418 71.5471 20.7725 71.5471 20.4847V16.0485C71.5471 15.7598 71.7049 15.4905 71.9602 15.348L75.9041 13.128C76.1536 12.9905 76.4849 12.9905 76.7326 13.128L80.6716 15.3489C80.926 15.4923 81.0848 15.7608 81.0848 16.0494V20.4857C81.0848 20.7734 80.926 21.0418 80.6716 21.1862L76.7326 23.4061C76.6064 23.4772 76.4632 23.514 76.3172 23.514" fill="#689F63"/>
</g>
<g filter="url(#filter2_ddd_214_840)">
<path d="M77.5348 20.4592C75.8108 20.4592 75.4495 19.687 75.4495 19.0395C75.4495 18.9778 75.5003 18.9289 75.5635 18.9289H76.0725C76.1287 18.9289 76.176 18.9688 76.1849 19.023C76.2619 19.529 76.4907 19.7843 77.5332 19.7843C78.3636 19.7843 78.7166 19.6013 78.7166 19.1717C78.7166 18.9245 78.616 18.7406 77.3262 18.6174C76.2472 18.5136 75.5805 18.2817 75.5805 17.4396C75.5805 16.664 76.2511 16.202 77.3744 16.202C78.6358 16.202 79.2611 16.6294 79.34 17.5472C79.3429 17.579 79.331 17.6098 79.3093 17.6329C79.2876 17.655 79.2569 17.6684 79.2256 17.6684H78.7138C78.6604 17.6684 78.6141 17.632 78.6032 17.5818C78.4799 17.0496 78.1821 16.8794 77.3725 16.8794C76.4661 16.8794 76.3607 17.1874 76.3607 17.4184C76.3607 17.6984 76.485 17.7804 77.708 17.9381C78.9192 18.0949 79.494 18.3163 79.494 19.1468C79.494 19.9773 78.778 20.4642 77.5294 20.4642M82.3282 15.7596H82.4605C82.5691 15.7596 82.5896 15.6854 82.5896 15.6421C82.5896 15.5286 82.5097 15.5286 82.4653 15.5286H82.3292L82.3282 15.7596ZM82.1675 15.3958H82.4605C82.5612 15.3958 82.7583 15.3958 82.7583 15.6153C82.7583 15.7683 82.6576 15.8001 82.5976 15.8191C82.7148 15.8269 82.7228 15.9018 82.7385 16.0077C82.7465 16.0742 82.7592 16.1886 82.7829 16.2272H82.6024C82.5976 16.1889 82.5698 15.9769 82.5698 15.9654C82.558 15.9183 82.541 15.8952 82.481 15.8952H82.3321V16.2282H82.1675V15.3958ZM81.8155 15.8095C81.8155 16.154 82.1004 16.433 82.4506 16.433C82.8008 16.433 83.0887 16.148 83.0887 15.8095C83.0887 15.4709 82.7998 15.1897 82.4497 15.1897C82.0995 15.1897 81.8145 15.46 81.8145 15.8085M83.211 15.8113C83.211 16.2194 82.8688 16.5524 82.4516 16.5524C82.0343 16.5524 81.6921 16.2232 81.6921 15.8113C81.6921 15.3995 82.0452 15.0703 82.4516 15.0703C82.858 15.0703 83.2101 15.3927 83.2101 15.8113" fill="#689F63"/>
</g>
<g filter="url(#filter3_d_214_840)">
<path fill-rule="evenodd" clip-rule="evenodd" d="M17.3744 14.6811C17.3744 14.4202 17.2335 14.1804 17.0029 14.0507L10.8477 10.5953C10.7439 10.5357 10.6273 10.5046 10.5094 10.5002H10.4458C10.3279 10.5046 10.2113 10.5357 10.1059 10.5953L3.95107 14.051C3.72167 14.1814 3.57886 14.4211 3.57886 14.682L3.59228 23.9893C3.59228 24.1184 3.66065 24.2387 3.77695 24.3027C3.89037 24.3706 4.03254 24.3706 4.14597 24.3027L7.80485 22.2579C8.03585 22.1238 8.17675 21.8866 8.17675 21.6285V17.2805C8.17675 17.0211 8.31765 16.7814 8.548 16.6523L10.1059 15.7769C10.2215 15.7117 10.3487 15.6793 10.4778 15.6793C10.6068 15.6793 10.735 15.7114 10.8474 15.7766L12.4043 16.6517C12.6347 16.7807 12.7762 17.0205 12.7762 17.2798V21.6275C12.7762 21.8857 12.9191 22.1238 13.1491 22.2569L16.8057 24.3002C16.9204 24.3669 17.0633 24.3669 17.1776 24.3002C17.2904 24.2363 17.362 24.1159 17.362 23.9869L17.3738 14.6811H17.3744ZM46.4184 19.5269C46.4184 19.5918 46.3829 19.6516 46.3254 19.6838L44.2113 20.8728C44.1538 20.9049 44.0828 20.9049 44.0257 20.8728L41.9112 19.6838C41.8531 19.6516 41.8182 19.5915 41.8182 19.5269V17.1455C41.8182 17.0806 41.8531 17.0208 41.9099 16.988L44.0228 15.7968C44.0809 15.7641 44.1522 15.7641 44.2103 15.7968L46.3248 16.988C46.3829 17.0208 46.4177 17.0806 46.4177 17.1455L46.4184 19.5269ZM46.9896 1.88776C46.8743 1.8251 46.734 1.82666 46.62 1.8915C46.5066 1.95666 46.4366 2.07575 46.4366 2.20481V11.4214C46.4366 11.5121 46.3871 11.5957 46.3065 11.6412C46.2267 11.6867 46.127 11.6867 46.0465 11.6412L44.5046 10.7748C44.2749 10.6452 43.9921 10.6452 43.7617 10.7748L37.6047 14.2421C37.3747 14.3712 37.2328 14.6109 37.2328 14.8688V21.8052C37.2328 22.0646 37.3747 22.3028 37.6047 22.4334L43.7617 25.9032C43.9918 26.0323 44.2749 26.0323 44.5052 25.9032L50.6623 22.4321C50.892 22.3018 51.0342 22.0634 51.0342 21.804V4.51645C51.0342 4.25333 50.8875 4.0111 50.652 3.88266L46.9896 1.88776ZM67.4928 17.0828C67.7215 16.9531 67.8624 16.714 67.8624 16.4559V14.7749C67.8624 14.5162 67.7215 14.2777 67.4924 14.1474L61.3747 10.6819C61.1437 10.5516 60.8603 10.5516 60.6293 10.6819L54.4739 14.1486C54.2429 14.2789 54.102 14.5174 54.102 14.7768V21.7104C54.102 21.9714 54.2457 22.2124 54.4767 22.3414L60.5932 25.7429C60.8184 25.8692 61.0945 25.8705 61.3226 25.7473L65.0224 23.7409C65.1387 23.677 65.2128 23.5566 65.2128 23.426C65.2128 23.2954 65.1416 23.1735 65.0253 23.1099L58.8318 19.6417C58.7155 19.5778 58.6443 19.4574 58.6443 19.3284V17.1533C58.6443 17.0233 58.7139 16.9039 58.8302 16.839L60.7571 15.7544C60.8718 15.6893 61.0127 15.6893 61.1277 15.7544L63.0562 16.839C63.1709 16.9029 63.2422 17.0233 63.2422 17.1523V18.8623C63.2422 18.9914 63.3134 19.1117 63.4281 19.1772C63.5428 19.2411 63.6853 19.2411 63.8 19.1756L67.4931 17.0825L67.4928 17.0828Z" fill="#333333"/>
</g>
<path fill-rule="evenodd" clip-rule="evenodd" d="M60.9115 16.7587C60.955 16.7334 61.0096 16.7334 61.054 16.7587L62.2355 17.4236C62.2796 17.4486 62.3068 17.4944 62.3068 17.5443V18.8758C62.3068 18.9254 62.2796 18.9715 62.2355 18.9964L61.054 19.6614C61.0099 19.6867 60.9553 19.6867 60.9115 19.6614L59.731 18.9964C59.6859 18.9715 59.6584 18.9257 59.6584 18.8758V17.5443C59.6584 17.4947 59.6846 17.4486 59.7297 17.4236L60.9118 16.7587H60.9115Z" fill="#689F63"/>
<path d="M20.5941 22.1293C20.6525 22.2035 20.726 22.2677 20.812 22.3161L26.0635 25.2758L26.9383 25.7665C27.069 25.8404 27.2182 25.8716 27.3645 25.8607C27.4134 25.8569 27.4623 25.8479 27.5099 25.8348L33.967 14.2984C33.9174 14.2461 33.8596 14.2021 33.7948 14.165L29.786 11.9064L27.6671 10.7167C27.607 10.6828 27.5415 10.6587 27.4754 10.6416L20.5938 22.1293H20.5941Z" fill="url(#paint1_linear_214_840)"/>
<path d="M27.2303 10.6241C27.1275 10.6341 27.0271 10.6652 26.9345 10.7167L20.8298 14.1547L27.4128 25.854C27.5045 25.8413 27.5946 25.8116 27.6757 25.7655L33.7979 22.3147C33.9867 22.2078 34.1161 22.027 34.1554 21.8219L27.4447 10.6359C27.3952 10.6266 27.346 10.6216 27.2952 10.6216C27.2747 10.6216 27.2546 10.6225 27.2342 10.6244" fill="url(#paint2_linear_214_840)"/>
</g>
<defs>
<filter id="filter0_d_214_840" x="16.4424" y="10.6216" width="21.7227" height="23.2417" filterUnits="userSpaceOnUse" color-interpolation-filters="sRGB">
<feFlood flood-opacity="0" result="BackgroundImageFix"/>
<feColorMatrix in="SourceAlpha" type="matrix" values="0 0 0 0 0 0 0 0 0 0 0 0 0 0 0 0 0 0 127 0" result="hardAlpha"/>
<feOffset dy="4"/>
<feGaussianBlur stdDeviation="2"/>
<feComposite in2="hardAlpha" operator="out"/>
<feColorMatrix type="matrix" values="0 0 0 0 0 0 0 0 0 0 0 0 0 0 0 0 0 0 0.25 0"/>
<feBlend mode="normal" in2="BackgroundImageFix" result="effect1_dropShadow_214_840"/>
<feBlend mode="normal" in="SourceGraphic" in2="effect1_dropShadow_214_840" result="shape"/>
</filter>
<filter id="filter1_ddd_214_840" x="67.5471" y="13.0249" width="17.5376" height="18.4912" filterUnits="userSpaceOnUse" color-interpolation-filters="sRGB">
<feFlood flood-opacity="0" result="BackgroundImageFix"/>
<feColorMatrix in="SourceAlpha" type="matrix" values="0 0 0 0 0 0 0 0 0 0 0 0 0 0 0 0 0 0 127 0" result="hardAlpha"/>
<feOffset dy="4"/>
<feGaussianBlur stdDeviation="2"/>
<feComposite in2="hardAlpha" operator="out"/>
<feColorMatrix type="matrix" values="0 0 0 0 0 0 0 0 0 0 0 0 0 0 0 0 0 0 0.25 0"/>
<feBlend mode="normal" in2="BackgroundImageFix" result="effect1_dropShadow_214_840"/>
<feColorMatrix in="SourceAlpha" type="matrix" values="0 0 0 0 0 0 0 0 0 0 0 0 0 0 0 0 0 0 127 0" result="hardAlpha"/>
<feOffset dy="4"/>
<feGaussianBlur stdDeviation="2"/>
<feComposite in2="hardAlpha" operator="out"/>
<feColorMatrix type="matrix" values="0 0 0 0 0 0 0 0 0 0 0 0 0 0 0 0 0 0 0.25 0"/>
<feBlend mode="normal" in2="effect1_dropShadow_214_840" result="effect2_dropShadow_214_840"/>
<feColorMatrix in="SourceAlpha" type="matrix" values="0 0 0 0 0 0 0 0 0 0 0 0 0 0 0 0 0 0 127 0" result="hardAlpha"/>
<feOffset dy="4"/>
<feGaussianBlur stdDeviation="2"/>
<feComposite in2="hardAlpha" operator="out"/>
<feColorMatrix type="matrix" values="0 0 0 0 0 0 0 0 0 0 0 0 0 0 0 0 0 0 0.25 0"/>
<feBlend mode="normal" in2="effect2_dropShadow_214_840" result="effect3_dropShadow_214_840"/>
<feBlend mode="normal" in="SourceGraphic" in2="effect3_dropShadow_214_840" result="shape"/>
</filter>
<filter id="filter2_ddd_214_840" x="71.4495" y="15.0703" width="15.7615" height="13.394" filterUnits="userSpaceOnUse" color-interpolation-filters="sRGB">
<feFlood flood-opacity="0" result="BackgroundImageFix"/>
<feColorMatrix in="SourceAlpha" type="matrix" values="0 0 0 0 0 0 0 0 0 0 0 0 0 0 0 0 0 0 127 0" result="hardAlpha"/>
<feOffset dy="4"/>
<feGaussianBlur stdDeviation="2"/>
<feComposite in2="hardAlpha" operator="out"/>
<feColorMatrix type="matrix" values="0 0 0 0 0 0 0 0 0 0 0 0 0 0 0 0 0 0 0.25 0"/>
<feBlend mode="normal" in2="BackgroundImageFix" result="effect1_dropShadow_214_840"/>
<feColorMatrix in="SourceAlpha" type="matrix" values="0 0 0 0 0 0 0 0 0 0 0 0 0 0 0 0 0 0 127 0" result="hardAlpha"/>
<feOffset dy="4"/>
<feGaussianBlur stdDeviation="2"/>
<feComposite in2="hardAlpha" operator="out"/>
<feColorMatrix type="matrix" values="0 0 0 0 0 0 0 0 0 0 0 0 0 0 0 0 0 0 0.25 0"/>
<feBlend mode="normal" in2="effect1_dropShadow_214_840" result="effect2_dropShadow_214_840"/>
<feColorMatrix in="SourceAlpha" type="matrix" values="0 0 0 0 0 0 0 0 0 0 0 0 0 0 0 0 0 0 127 0" result="hardAlpha"/>
<feOffset dy="4"/>
<feGaussianBlur stdDeviation="2"/>
<feComposite in2="hardAlpha" operator="out"/>
<feColorMatrix type="matrix" values="0 0 0 0 0 0 0 0 0 0 0 0 0 0 0 0 0 0 0.25 0"/>
<feBlend mode="normal" in2="effect2_dropShadow_214_840" result="effect3_dropShadow_214_840"/>
<feBlend mode="normal" in="SourceGraphic" in2="effect3_dropShadow_214_840" result="shape"/>
</filter>
<filter id="filter3_d_214_840" x="-0.421143" y="1.8418" width="72.2834" height="32.1582" filterUnits="userSpaceOnUse" color-interpolation-filters="sRGB">
<feFlood flood-opacity="0" result="BackgroundImageFix"/>
<feColorMatrix in="SourceAlpha" type="matrix" values="0 0 0 0 0 0 0 0 0 0 0 0 0 0 0 0 0 0 127 0" result="hardAlpha"/>
<feOffset dy="4"/>
<feGaussianBlur stdDeviation="2"/>
<feComposite in2="hardAlpha" operator="out"/>
<feColorMatrix type="matrix" values="0 0 0 0 0 0 0 0 0 0 0 0 0 0 0 0 0 0 0.25 0"/>
<feBlend mode="normal" in2="BackgroundImageFix" result="effect1_dropShadow_214_840"/>
<feBlend mode="normal" in="SourceGraphic" in2="effect1_dropShadow_214_840" result="shape"/>
</filter>
<linearGradient id="paint0_linear_214_840" x1="24.7783" y1="25.0123" x2="29.6141" y2="11.3954" gradientUnits="userSpaceOnUse">
<stop offset="0.2" stop-color="#5AAD45"/>
<stop offset="0.5" stop-color="#55934F"/>
<stop offset="0.7" stop-color="#3E863D"/>
</linearGradient>
<linearGradient id="paint1_linear_214_840" x1="21.1244" y1="22.8295" x2="33.3927" y2="13.5398" gradientUnits="userSpaceOnUse">
<stop offset="0.57" stop-color="#3E863D"/>
<stop offset="0.72" stop-color="#619857"/>
<stop offset="1" stop-color="#76AC64"/>
</linearGradient>
<linearGradient id="paint2_linear_214_840" x1="20.8302" y1="18.2377" x2="34.1554" y2="18.2377" gradientUnits="userSpaceOnUse">
<stop offset="0.16" stop-color="#6BBF47"/>
<stop offset="0.38" stop-color="#79B461"/>
<stop offset="0.47" stop-color="#75AC64"/>
<stop offset="0.7" stop-color="#659E5A"/>
<stop offset="0.9" stop-color="#3E863D"/>
</linearGradient>
<clipPath id="clip0_214_840">
<rect width="85" height="33.1053" fill="white" transform="translate(0 0.947266)"/>
</clipPath>
</defs>
</svg>
