<svg width="46" height="46" viewBox="0 0 46 46" fill="none" xmlns="http://www.w3.org/2000/svg">
<path d="M4.72276 44.3349C5.39539 44.7581 6.30818 45.1998 7.49748 45.4678L13.6593 45.5154V39.927C13.5971 39.4172 13.0909 34.6427 16.5775 31.5967C18.1577 30.2162 19.9014 29.7645 20.8688 29.5974L38.1342 29.5403C38.7341 29.5065 41.0266 29.3061 42.9756 27.4463C45.0016 25.5127 45.2514 23.1269 45.2959 22.5523C45.2987 17.3361 45.3016 12.1204 45.3045 6.90419C45.2523 6.64571 45.137 6.16113 44.8797 5.60609C42.6412 0.779266 34.1018 0.223753 31.805 0.0652388C30.3114 -0.0380571 29.0274 -0.00521189 28.0161 0.0652388C25.9427 0.209948 17.896 0.771174 15.9628 5.15054C15.7776 5.56944 15.6915 5.9274 15.659 6.07259V10.452L15.6877 13.7174L30.5061 13.8031L30.5277 15.8095L8.62651 15.9381C7.38075 16.0004 6.41008 16.3079 5.68913 16.6402C0.361192 19.096 0.0157872 26.9055 0 27.4234V34.7384C0.0253552 35.6109 0.284648 41.5431 4.72276 44.3349ZM22.0887 10.0807C20.6224 10.0807 19.4336 8.89775 19.4336 7.43876C19.4336 5.97976 20.6224 4.79686 22.0887 4.79686C23.555 4.79686 24.7438 5.97976 24.7438 7.43876C24.7438 8.89775 23.555 10.0807 22.0887 10.0807Z" fill="#3571A3"/>
</svg>
