<svg width="86" height="77" viewBox="0 0 86 77" fill="none" xmlns="http://www.w3.org/2000/svg">
<g filter="url(#filter0_d_369_27)">
<path d="M78 37.9603C77.9947 33.1882 72.0951 28.9771 63.0747 26.4384C65.3609 17.3889 64.6356 10.1993 60.4827 7.81549C56.3298 5.43166 49.7156 8.40836 42.9929 14.9121C36.2676 8.41278 29.6516 5.43963 25.5005 7.82611C21.3449 10.2144 20.6267 17.4163 22.9262 26.4765C13.896 29.0346 7.99467 33.2625 8 38.039C8.00534 42.8111 13.9049 47.0222 22.9253 49.5609C20.6391 58.6104 21.3644 65.8 25.5173 68.1838C29.6702 70.5676 36.2844 67.5909 43.0071 61.0872C49.7333 67.5865 56.3493 70.5597 60.5005 68.1741C64.656 65.7858 65.3742 58.5839 63.0747 49.5237C72.104 46.9656 78.0053 42.7368 78 37.9603ZM59.0125 10.3551C62.1645 12.1646 62.4711 18.0755 60.3787 25.7526C57.4729 25.0846 54.3049 24.5802 50.9529 24.2705C49.0036 21.538 46.9778 19.0613 44.9413 16.8925C50.5671 11.2444 55.8605 8.54639 59.0125 10.3551ZM52.6782 43.5553C51.5973 45.4215 50.4764 47.2062 49.3324 48.8981C47.2889 49.0424 45.176 49.1193 43.0125 49.1211C40.8445 49.1238 38.7271 49.0512 36.68 48.9114C35.5324 47.2178 34.4089 45.4294 33.3244 43.5606C32.2427 41.6953 31.2507 39.8362 30.3529 38.0036C31.2507 36.1702 32.2409 34.3111 33.3218 32.4449C34.4027 30.5787 35.5236 28.7939 36.6676 27.1021C38.7111 26.9578 40.824 26.8808 42.9876 26.8791C45.1556 26.8764 47.2729 26.949 49.32 27.0888C50.4676 28.7824 51.5911 30.5707 52.6756 32.4396C53.7573 34.3049 54.7493 36.164 55.6471 37.9966C54.7493 39.83 53.7591 41.6891 52.6782 43.5553ZM57.2356 41.4307C58.1449 43.5217 58.9227 45.5586 59.5636 47.5071C57.5485 47.9318 55.3884 48.2822 53.1156 48.5459C53.8471 47.4107 54.5636 46.2409 55.2604 45.0366C55.9573 43.8323 56.616 42.6297 57.2356 41.4307ZM47.1404 51.9863C45.7716 53.8233 44.3849 55.5187 43.0053 57.0504C41.6267 55.5213 40.24 53.8277 38.872 51.9943C40.2311 52.0571 41.6142 52.089 43.016 52.0872C44.4116 52.0854 45.7876 52.0518 47.1404 51.9863ZM32.9013 48.5681C30.6213 48.3079 28.4551 47.961 26.4347 47.5398C27.0756 45.5834 27.8551 43.5385 28.7662 41.4387C29.3876 42.6377 30.0453 43.8411 30.744 45.0445C31.4453 46.2533 32.1653 47.4284 32.9013 48.5681ZM28.7645 34.5695C27.8551 32.4785 27.0773 30.4416 26.4364 28.4931C28.4516 28.0683 30.6116 27.7179 32.8844 27.4542C32.1529 28.5895 31.4365 29.7593 30.7396 30.9636C30.0427 32.1679 29.384 33.3705 28.7645 34.5695ZM38.8596 24.0139C40.2284 22.1769 41.6151 20.4815 42.9947 18.9498C44.3733 20.4788 45.76 22.1725 47.128 24.0059C45.7689 23.9431 44.3858 23.9112 42.984 23.913C41.5884 23.9148 40.2124 23.9484 38.8596 24.0139ZM55.256 30.9565C54.5547 29.7478 53.8347 28.5718 53.0987 27.4321C55.3787 27.6923 57.5449 28.0391 59.5653 28.4603C58.9244 30.4168 58.1449 32.4617 57.2338 34.5615C56.6124 33.3625 55.9547 32.16 55.256 30.9565ZM26.9716 10.3639C30.1227 8.55259 35.4169 11.2479 41.0462 16.8925C39.008 19.0657 36.9813 21.5478 35.0302 24.2864C31.6836 24.6032 28.5209 25.1129 25.6196 25.7854C23.5164 18.0985 23.8169 12.1761 26.9716 10.3639ZM10.944 38.0355C10.9396 34.4102 15.9369 31.184 23.6738 29.1452C24.5431 31.9821 25.6836 34.9615 27.0853 38.0045C25.6818 41.0573 24.5396 44.0473 23.6711 46.8921C15.9431 44.8702 10.9484 41.6581 10.9449 38.0364L10.944 38.0355ZM26.9876 65.6442C23.8356 63.8347 23.5289 57.9238 25.6213 50.2467C28.5271 50.9147 31.6951 51.4191 35.0471 51.7297C36.9964 54.4622 39.0222 56.9389 41.0587 59.1077C35.4329 64.7558 30.1396 67.4529 26.9876 65.6442ZM59.0285 65.6354C55.8773 67.4467 50.5831 64.7514 44.9538 59.1068C46.992 56.9336 49.0187 54.4515 50.9698 51.7129C54.3164 51.3961 57.4791 50.8864 60.3805 50.2139C62.4836 57.9008 62.1831 63.8232 59.0285 65.6354ZM62.3271 46.8541C61.4578 44.0172 60.3173 41.0378 58.9156 37.9948C60.3191 34.942 61.4613 31.952 62.3298 29.1072C70.0578 31.1291 75.0525 34.3412 75.056 37.9629C75.0605 41.5882 70.0631 44.8145 62.3262 46.8532L62.3271 46.8541Z" fill="#00D7FE"/>
</g>
<g filter="url(#filter1_d_369_27)">
<path d="M46.0027 43.3888C48.9941 41.7381 50.0749 37.986 48.4168 35.0081C46.7586 32.0302 42.9894 30.9543 39.998 32.605C37.0066 34.2556 35.9257 38.0078 37.5839 40.9857C39.2421 43.9635 43.0113 45.0395 46.0027 43.3888Z" fill="#00D7FE"/>
</g>
<defs>
<filter id="filter0_d_369_27" x="4" y="6.99902" width="78" height="70.0015" filterUnits="userSpaceOnUse" color-interpolation-filters="sRGB">
<feFlood flood-opacity="0" result="BackgroundImageFix"/>
<feColorMatrix in="SourceAlpha" type="matrix" values="0 0 0 0 0 0 0 0 0 0 0 0 0 0 0 0 0 0 127 0" result="hardAlpha"/>
<feOffset dy="4"/>
<feGaussianBlur stdDeviation="2"/>
<feComposite in2="hardAlpha" operator="out"/>
<feColorMatrix type="matrix" values="0 0 0 0 0 0 0 0 0 0 0 0 0 0 0 0 0 0 0.25 0"/>
<feBlend mode="normal" in2="BackgroundImageFix" result="effect1_dropShadow_369_27"/>
<feBlend mode="normal" in="SourceGraphic" in2="effect1_dropShadow_369_27" result="shape"/>
</filter>
<filter id="filter1_d_369_27" x="32.8062" y="31.8311" width="20.3882" height="20.332" filterUnits="userSpaceOnUse" color-interpolation-filters="sRGB">
<feFlood flood-opacity="0" result="BackgroundImageFix"/>
<feColorMatrix in="SourceAlpha" type="matrix" values="0 0 0 0 0 0 0 0 0 0 0 0 0 0 0 0 0 0 127 0" result="hardAlpha"/>
<feOffset dy="4"/>
<feGaussianBlur stdDeviation="2"/>
<feComposite in2="hardAlpha" operator="out"/>
<feColorMatrix type="matrix" values="0 0 0 0 0 0 0 0 0 0 0 0 0 0 0 0 0 0 0.25 0"/>
<feBlend mode="normal" in2="BackgroundImageFix" result="effect1_dropShadow_369_27"/>
<feBlend mode="normal" in="SourceGraphic" in2="effect1_dropShadow_369_27" result="shape"/>
</filter>
</defs>
</svg>
