<svg width="63" height="63" viewBox="0 0 63 63" fill="none" xmlns="http://www.w3.org/2000/svg">
<g filter="url(#filter0_d_369_23)">
<path d="M50.4258 0H12.5742C7.83881 0 4 3.83881 4 8.57421V46.4258C4 51.1612 7.83881 55 12.5742 55H50.4258C55.1612 55 59 51.1612 59 46.4258V8.57421C59 3.83881 55.1612 0 50.4258 0Z" fill="#2D79C7"/>
</g>
<path d="M54.6529 40.5306C54.0678 39.5622 53.1739 38.7126 51.9937 38.0045C50.8705 37.3307 49.3145 36.7113 47.3693 36.1639C45.6133 35.6693 44.3762 35.1353 43.6907 34.5762C43.109 34.1016 42.8378 33.5718 42.8378 32.908C42.8378 32.0183 43.1249 31.3772 43.7409 30.8917C44.403 30.3702 45.3798 30.1058 46.6436 30.1058C47.9987 30.1058 49.0416 30.4263 49.7422 31.0591C50.0745 31.3587 50.3231 31.7128 50.4913 32.1254L54.3306 29.6688C53.5807 28.5037 52.5227 27.5772 51.1844 26.9168C49.8518 26.2589 48.3235 25.9258 46.6428 25.9258C44.1686 25.9258 42.1146 26.5803 40.5369 27.8701C38.9073 29.2035 38.0811 30.9168 38.0811 32.9641C38.0811 34.7846 38.7641 36.3355 40.11 37.5743C41.3881 38.7503 43.3283 39.7011 46.0427 40.4812C48.439 41.1742 49.5037 41.7584 49.9749 42.1259C50.5415 42.5678 50.8052 43.1663 50.8052 44.0108C50.8052 44.8553 50.5139 45.4663 49.8878 45.9451C49.2082 46.4649 48.1686 46.7294 46.7976 46.7294C45.317 46.7294 44.136 46.3921 43.2881 45.7267C42.493 45.1031 42.1063 44.2669 42.1063 43.1721V42.8867L37.7991 45.643C38.0025 46.1904 38.2762 46.7101 38.621 47.1998C39.4404 48.3615 40.6089 49.2839 42.0954 49.9409C43.5467 50.5829 45.1295 50.9085 46.7976 50.9085C49.3764 50.9085 51.484 50.2908 53.0626 49.0721C54.7098 47.8007 55.5451 46.0874 55.5451 43.9782C55.5451 42.6733 55.2446 41.5132 54.6504 40.5297L54.6529 40.5306Z" fill="white"/>
<path d="M24.217 25.9253H17.0967V30.5665H24.217V50.6167H29.1436V30.5665H36.2639V25.9253H29.1436H24.217Z" fill="white"/>
<defs>
<filter id="filter0_d_369_23" x="0" y="0" width="63" height="63" filterUnits="userSpaceOnUse" color-interpolation-filters="sRGB">
<feFlood flood-opacity="0" result="BackgroundImageFix"/>
<feColorMatrix in="SourceAlpha" type="matrix" values="0 0 0 0 0 0 0 0 0 0 0 0 0 0 0 0 0 0 127 0" result="hardAlpha"/>
<feOffset dy="4"/>
<feGaussianBlur stdDeviation="2"/>
<feComposite in2="hardAlpha" operator="out"/>
<feColorMatrix type="matrix" values="0 0 0 0 0 0 0 0 0 0 0 0 0 0 0 0 0 0 0.25 0"/>
<feBlend mode="normal" in2="BackgroundImageFix" result="effect1_dropShadow_369_23"/>
<feBlend mode="normal" in="SourceGraphic" in2="effect1_dropShadow_369_23" result="shape"/>
</filter>
</defs>
</svg>
