<svg width="46" height="45" viewBox="0 0 46 45" fill="none" xmlns="http://www.w3.org/2000/svg">
<g clip-path="url(#clip0_215_151)" filter="url(#filter0_i_215_151)">
<path d="M23 0C10.2994 0 0 10.1812 0 22.7362C0 33.7162 7.87531 42.8737 18.3454 45C18.0722 44.28 18.0609 43.7175 18.0609 43.7175C18.0609 42.2775 18.0836 40.6575 18.0836 39.195C17.0139 39.4313 15.9441 39.5438 14.8743 39.465C12.5072 39.2738 10.7432 38.2275 9.78724 35.9775C9.16131 34.515 8.27363 33.2325 6.86244 32.3888C6.61207 32.2425 6.39584 32.0513 6.22514 31.8263C5.98615 31.5 6.05443 31.2638 6.42999 31.1287C6.86244 30.9713 7.30628 30.9825 7.75012 31.0725C9.18407 31.3538 10.2311 32.175 11.0049 33.3675C12.6324 35.8988 15.1247 36.675 17.9357 35.5387C18.1633 35.4487 18.2771 35.325 18.3112 35.0662C18.3909 34.4137 18.5957 33.8063 18.9258 33.2325C19.1306 32.8725 19.4265 32.5575 19.7566 32.1975C18.5616 32.0737 17.4577 31.8713 16.3879 31.5788C12.9624 30.6337 10.4701 28.6763 9.33201 25.2563C8.76299 23.5463 8.5809 21.7688 8.61504 19.98C8.64918 17.7188 9.3434 15.705 10.8229 13.9725C10.9936 13.77 11.0391 13.6013 10.9594 13.3313C10.4701 11.5538 10.5042 9.77625 11.0619 8.01C11.187 7.6275 11.2667 7.39125 11.3805 7.25625L11.8471 7.0875C11.9951 7.0875 12.1885 7.12125 12.4389 7.155C13.9639 7.38 15.3864 7.93125 16.6497 8.76375C17.6967 9.45 18.664 9.50625 19.859 9.27C23.2504 8.60625 26.6531 8.62875 30.0218 9.495C30.3177 9.57375 30.5339 9.5175 30.7729 9.37125C31.8654 8.685 33.0035 8.0775 34.2212 7.63875C35.052 7.335 35.8941 7.09875 36.7818 7.12125C36.9753 7.12125 37.146 7.14375 37.237 7.38C37.954 9.2925 38.2499 11.2275 37.5898 13.2188C37.4988 13.4775 37.5329 13.635 37.715 13.8488C38.5002 14.76 39.092 15.795 39.4221 16.9425C40.3097 20.0025 40.0252 23.0063 38.853 25.9425C38.0223 28.0462 36.4973 29.5538 34.4602 30.5662C33.4018 31.095 32.2751 31.455 31.1143 31.6912C30.3518 31.8487 29.5779 31.9613 28.7472 32.1075C29.3162 32.6362 29.6804 33.2213 29.9307 33.885C30.2608 34.7738 30.3973 35.685 30.3973 36.63C30.3973 38.9813 30.3973 41.3438 30.3973 43.7287C30.3973 43.7287 30.3859 43.9538 30.3063 44.2912C39.4221 41.2762 46.0114 32.7712 46.0114 22.7475C46 10.1812 35.7006 0 23 0Z" fill="white"/>
</g>
<defs>
<filter id="filter0_i_215_151" x="0" y="0" width="46" height="49" filterUnits="userSpaceOnUse" color-interpolation-filters="sRGB">
<feFlood flood-opacity="0" result="BackgroundImageFix"/>
<feBlend mode="normal" in="SourceGraphic" in2="BackgroundImageFix" result="shape"/>
<feColorMatrix in="SourceAlpha" type="matrix" values="0 0 0 0 0 0 0 0 0 0 0 0 0 0 0 0 0 0 127 0" result="hardAlpha"/>
<feOffset dy="4"/>
<feGaussianBlur stdDeviation="2"/>
<feComposite in2="hardAlpha" operator="arithmetic" k2="-1" k3="1"/>
<feColorMatrix type="matrix" values="0 0 0 0 0 0 0 0 0 0 0 0 0 0 0 0 0 0 0.25 0"/>
<feBlend mode="normal" in2="shape" result="effect1_innerShadow_215_151"/>
</filter>
<clipPath id="clip0_215_151">
<rect width="46" height="45" fill="white"/>
</clipPath>
</defs>
</svg>
