<?xml version="1.0" encoding="utf-8"?>
<!-- Generator: Adobe Illustrator 27.9.0, SVG Export Plug-In . SVG Version: 6.00 Build 0)  -->
<svg version="1.1" id="Camada_1" xmlns="http://www.w3.org/2000/svg" xmlns:xlink="http://www.w3.org/1999/xlink" x="0px" y="0px"
	 viewBox="0 0 47 47" style="enable-background:new 0 0 47 47;" xml:space="preserve">
<style type="text/css">
	.st0{fill:#FFFFFF;}
	.st1{fill:#7E41C8;}
</style>
<g>
	<ellipse class="st0" cx="23.52" cy="24.92" rx="22.1" ry="21.8"/>
	<g>
		<path class="st1" d="M23.49,0.27c-12.7,0-23,10.41-23,23.24c0,11.22,7.88,20.58,18.35,22.76c-0.27-0.74-0.28-1.31-0.28-1.31
			c0-1.47,0.02-3.13,0.02-4.62c-1.07,0.24-2.14,0.36-3.21,0.28c-2.37-0.2-4.13-1.26-5.09-3.56c-0.63-1.49-1.51-2.81-2.92-3.67
			c-0.25-0.15-0.47-0.35-0.64-0.58c-0.24-0.33-0.17-0.58,0.2-0.71c0.43-0.16,0.88-0.15,1.32-0.06c1.43,0.29,2.48,1.13,3.25,2.35
			c1.63,2.59,4.12,3.38,6.93,2.22c0.23-0.09,0.34-0.22,0.38-0.48c0.08-0.67,0.28-1.29,0.61-1.87c0.2-0.37,0.5-0.69,0.83-1.06
			c-1.19-0.13-2.3-0.33-3.37-0.63c-3.43-0.97-5.92-2.97-7.06-6.46c-0.57-1.75-0.75-3.56-0.72-5.39c0.03-2.31,0.73-4.37,2.21-6.14
			c0.17-0.21,0.22-0.38,0.14-0.66c-0.49-1.82-0.46-3.63,0.1-5.44c0.13-0.39,0.2-0.63,0.32-0.77l0.47-0.17
			c0.15,0,0.34,0.03,0.59,0.07c1.52,0.23,2.95,0.79,4.21,1.64c1.05,0.7,2.01,0.76,3.21,0.52c3.39-0.68,6.79-0.66,10.16,0.23
			c0.3,0.08,0.51,0.02,0.75-0.13c1.09-0.7,2.23-1.32,3.45-1.77c0.83-0.31,1.67-0.55,2.56-0.53c0.19,0,0.36,0.02,0.46,0.26
			c0.72,1.95,1.01,3.93,0.35,5.97c-0.09,0.26-0.06,0.43,0.13,0.64c0.79,0.93,1.38,1.99,1.71,3.16c0.89,3.13,0.6,6.2-0.57,9.2
			c-0.83,2.15-2.36,3.69-4.39,4.73c-1.06,0.54-2.19,0.91-3.35,1.15c-0.76,0.16-1.54,0.28-2.37,0.43c0.57,0.54,0.93,1.14,1.18,1.82
			c0.33,0.91,0.47,1.84,0.47,2.81c0,2.4,0,4.82,0,7.26c0,0-0.01,0.23-0.09,0.58c9.12-3.08,15.71-11.78,15.71-22.02
			C46.49,10.68,36.19,0.27,23.49,0.27z"/>
	</g>
</g>
</svg>
