<?xml version="1.0" encoding="UTF-8"?>
<svg id="Camada_1" data-name="Camada 1" xmlns="http://www.w3.org/2000/svg" viewBox="0 0 44 44">
  <defs>
    <style>
      .cls-1 {
        fill: #fff;
      }

      .cls-1, .cls-2 {
        stroke-width: 0px;
      }

      .cls-2 {
        fill: #7e41c8;
      }
    </style>
  </defs>
  <circle class="cls-1" cx="22.37" cy="20.73" r="18.03"/>
  <path class="cls-2" d="m22,0C9.85,0,0,9.85,0,22s9.85,22,22,22,22-9.85,22-22S34.15,0,22,0Zm-5.42,31.8h-4.55v-14.71h4.55v14.71Zm-2.3-16.63c-1.48,0-2.69-1.22-2.69-2.72s1.21-2.72,2.69-2.72,2.69,1.21,2.69,2.72-1.21,2.72-2.69,2.72Zm19.36,16.63h-4.53v-7.72c0-2.11-.8-3.3-2.48-3.3-1.83,0-2.77,1.23-2.77,3.3v7.72h-4.37v-14.71h4.37v1.98s1.31-2.43,4.43-2.43,5.36,1.9,5.36,5.84v9.32h-.01Z"/>
</svg>