<svg width="45" height="45" viewBox="0 0 45 45" fill="none" xmlns="http://www.w3.org/2000/svg">
<g id="Instagram" clip-path="url(#clip0_215_153)" filter="url(#filter0_i_215_153)">
<path id="Vector" d="M22.6142 18.3027C20.3248 18.3027 18.4551 20.1724 18.4551 22.4619C18.4551 24.7513 20.3248 26.621 22.6142 26.621C24.9036 26.621 26.7733 24.7513 26.7733 22.4619C26.7733 20.1724 24.9036 18.3027 22.6142 18.3027Z" fill="white"/>
<path id="Vector_2" d="M27.7661 11.7651H17.2348C14.2331 11.7651 11.791 14.2072 11.791 17.2089V27.7403C11.791 30.742 14.2331 33.184 17.2348 33.184H27.7661C30.7678 33.184 33.2099 30.742 33.2099 27.7403V17.2089C33.2099 14.2072 30.7678 11.7651 27.7661 11.7651ZM22.6022 28.974C19.0154 28.974 16.1028 26.0613 16.1028 22.4746C16.1028 18.8878 19.0154 15.9751 22.6022 15.9751C26.189 15.9751 29.1016 18.8878 29.1016 22.4746C29.1016 26.0613 26.189 28.974 22.6022 28.974ZM29.4832 17.0944C28.631 17.0944 27.9315 16.4076 27.9315 15.5427C27.9315 14.6778 28.6183 13.991 29.4832 13.991C30.3481 13.991 31.0349 14.6778 31.0349 15.5427C31.0349 16.4076 30.3481 17.0944 29.4832 17.0944Z" fill="white"/>
<path id="Vector_3" d="M22.5 0C10.0735 0 0 10.0735 0 22.5C0 34.9265 10.0735 45 22.5 45C34.9265 45 45 34.9265 45 22.5C45 10.0735 34.9265 0 22.5 0ZM35.6897 27.7402C35.6897 32.1156 32.1283 35.6642 27.7657 35.6642H17.2343C12.859 35.6642 9.31034 32.1156 9.31034 27.7402V17.2089C9.31034 12.8335 12.859 9.28491 17.2343 9.28491H27.7657C32.141 9.28491 35.6897 12.8335 35.6897 17.2089V27.7402Z" fill="white"/>
</g>
<defs>
<filter id="filter0_i_215_153" x="0" y="0" width="45" height="49" filterUnits="userSpaceOnUse" color-interpolation-filters="sRGB">
<feFlood flood-opacity="0" result="BackgroundImageFix"/>
<feBlend mode="normal" in="SourceGraphic" in2="BackgroundImageFix" result="shape"/>
<feColorMatrix in="SourceAlpha" type="matrix" values="0 0 0 0 0 0 0 0 0 0 0 0 0 0 0 0 0 0 127 0" result="hardAlpha"/>
<feOffset dy="4"/>
<feGaussianBlur stdDeviation="2"/>
<feComposite in2="hardAlpha" operator="arithmetic" k2="-1" k3="1"/>
<feColorMatrix type="matrix" values="0 0 0 0 0 0 0 0 0 0 0 0 0 0 0 0 0 0 0.25 0"/>
<feBlend mode="normal" in2="shape" result="effect1_innerShadow_215_153"/>
</filter>
<clipPath id="clip0_215_153">
<rect width="45" height="45" fill="white"/>
</clipPath>
</defs>
</svg>
