<svg width="46" height="46" viewBox="0 0 46 46" fill="none" xmlns="http://www.w3.org/2000/svg">
<g clip-path="url(#clip0_214_551)" filter="url(#filter0_i_214_551)">
<path d="M23 0C10.2994 0 0 10.4075 0 23.2415C0 34.4655 7.87531 43.8265 18.3454 46C18.0722 45.264 18.0609 44.689 18.0609 44.689C18.0609 43.217 18.0836 41.561 18.0836 40.066C17.0139 40.3075 15.9441 40.4225 14.8743 40.342C12.5072 40.1465 10.7432 39.077 9.78724 36.777C9.16131 35.282 8.27363 33.971 6.86244 33.1085C6.61207 32.959 6.39584 32.7635 6.22514 32.5335C5.98615 32.2 6.05443 31.9585 6.42999 31.8205C6.86244 31.6595 7.30628 31.671 7.75012 31.763C9.18407 32.0505 10.2311 32.89 11.0049 34.109C12.6324 36.6965 15.1247 37.49 17.9357 36.3285C18.1633 36.2365 18.2771 36.11 18.3112 35.8455C18.3909 35.1785 18.5957 34.5575 18.9258 33.971C19.1306 33.603 19.4265 33.281 19.7566 32.913C18.5616 32.7865 17.4577 32.5795 16.3879 32.2805C12.9624 31.3145 10.4701 29.3135 9.33201 25.8175C8.76299 24.0695 8.5809 22.2525 8.61504 20.424C8.64918 18.1125 9.3434 16.054 10.8229 14.283C10.9936 14.076 11.0391 13.9035 10.9594 13.6275C10.4701 11.8105 10.5042 9.9935 11.0619 8.188C11.187 7.797 11.2667 7.5555 11.3805 7.4175L11.8471 7.245C11.9951 7.245 12.1885 7.2795 12.4389 7.314C13.9639 7.544 15.3864 8.1075 16.6497 8.9585C17.6967 9.66 18.664 9.7175 19.859 9.476C23.2504 8.7975 26.6531 8.8205 30.0218 9.706C30.3177 9.7865 30.5339 9.729 30.7729 9.5795C31.8654 8.878 33.0035 8.257 34.2212 7.8085C35.052 7.498 35.8941 7.2565 36.7818 7.2795C36.9753 7.2795 37.146 7.3025 37.237 7.544C37.954 9.499 38.2499 11.477 37.5898 13.5125C37.4988 13.777 37.5329 13.938 37.715 14.1565C38.5002 15.088 39.092 16.146 39.4221 17.319C40.3097 20.447 40.0252 23.5175 38.853 26.519C38.0223 28.6695 36.4973 30.2105 34.4602 31.2455C33.4018 31.786 32.2751 32.154 31.1143 32.3955C30.3518 32.5565 29.5779 32.6715 28.7472 32.821C29.3162 33.3615 29.6804 33.9595 29.9307 34.638C30.2608 35.5465 30.3973 36.478 30.3973 37.444C30.3973 39.8475 30.3973 42.2625 30.3973 44.7005C30.3973 44.7005 30.3859 44.9305 30.3063 45.2755C39.4221 42.1935 46.0114 33.4995 46.0114 23.253C46 10.4075 35.7006 0 23 0Z" fill="#7E41CA"/>
</g>
<defs>
<filter id="filter0_i_214_551" x="0" y="0" width="46" height="50" filterUnits="userSpaceOnUse" color-interpolation-filters="sRGB">
<feFlood flood-opacity="0" result="BackgroundImageFix"/>
<feBlend mode="normal" in="SourceGraphic" in2="BackgroundImageFix" result="shape"/>
<feColorMatrix in="SourceAlpha" type="matrix" values="0 0 0 0 0 0 0 0 0 0 0 0 0 0 0 0 0 0 127 0" result="hardAlpha"/>
<feOffset dy="4"/>
<feGaussianBlur stdDeviation="2"/>
<feComposite in2="hardAlpha" operator="arithmetic" k2="-1" k3="1"/>
<feColorMatrix type="matrix" values="0 0 0 0 0 0 0 0 0 0 0 0 0 0 0 0 0 0 0.25 0"/>
<feBlend mode="normal" in2="shape" result="effect1_innerShadow_214_551"/>
</filter>
<clipPath id="clip0_214_551">
<rect width="46" height="46" fill="white"/>
</clipPath>
</defs>
</svg>
