<svg width="225" height="256" viewBox="0 0 225 256" fill="none" xmlns="http://www.w3.org/2000/svg">
<g clip-path="url(#clip0_214_744)" filter="url(#filter0_i_214_744)">
<path d="M83.7561 24.8774H32.5625V73.2031H83.7561V24.8774Z" fill="#7E41CA"/>
<path d="M23.3308 24.8774H0V48.2419H23.3308V24.8774Z" fill="#7E41CA"/>
<path d="M46.4939 0H32.5625V13.9514H46.4939V0Z" fill="#7E41CA"/>
<path d="M83.7561 207.843V181.705V125.479H32.5625V256H83.7561V207.843Z" fill="#7E41CA"/>
<path d="M189.752 55.3016C171.708 39.4171 149.888 29.752 124.795 26.3062V75.4723C136.292 77.9936 146.028 82.7842 154.168 89.7599C166.505 100.349 172.548 116.318 172.548 138.59C172.548 160.862 166.589 177.923 154.252 189.941C146.447 197.589 136.712 202.716 124.879 205.489V254.487C150.476 250.705 172.296 240.452 190.088 223.895C213.335 202.296 225.084 173.384 225.084 137.917C225.084 102.451 213.251 75.8925 189.836 55.3856L189.752 55.3016Z" fill="#7E41CA"/>
</g>
<defs>
<filter id="filter0_i_214_744" x="0" y="0" width="225" height="260" filterUnits="userSpaceOnUse" color-interpolation-filters="sRGB">
<feFlood flood-opacity="0" result="BackgroundImageFix"/>
<feBlend mode="normal" in="SourceGraphic" in2="BackgroundImageFix" result="shape"/>
<feColorMatrix in="SourceAlpha" type="matrix" values="0 0 0 0 0 0 0 0 0 0 0 0 0 0 0 0 0 0 127 0" result="hardAlpha"/>
<feOffset dy="4"/>
<feGaussianBlur stdDeviation="2"/>
<feComposite in2="hardAlpha" operator="arithmetic" k2="-1" k3="1"/>
<feColorMatrix type="matrix" values="0 0 0 0 0 0 0 0 0 0 0 0 0 0 0 0 0 0 0.25 0"/>
<feBlend mode="normal" in2="shape" result="effect1_innerShadow_214_744"/>
</filter>
<clipPath id="clip0_214_744">
<rect width="225" height="256" fill="white"/>
</clipPath>
</defs>
</svg>
